<svg width="158" height="53" viewBox="0 0 158 53" fill="none" xmlns="http://www.w3.org/2000/svg">
<path d="M33.3987 3C42.1425 9.62667 52.1694 9.21803 55.0343 9.21803C54.4076 46.9056 49.6329 39.4323 33.3987 50C17.1646 39.4323 12.4197 46.9056 11.793 9.21803C14.628 9.21803 24.6549 9.62667 33.3987 3Z" stroke="#009F42" stroke-width="5" stroke-miterlimit="10" stroke-linecap="round" stroke-linejoin="round"/>
<path d="M69.6495 40V12.48H77.9695L84.8495 25.84L91.5695 12.48H99.8895V40H91.5695V25.6L86.4895 35.2H83.0895L77.9695 25.6V40H69.6495ZM108.098 40.64C106.845 40.64 105.618 40.4667 104.418 40.12C103.218 39.8 102.245 39.2933 101.498 38.6L103.298 33.32C103.671 33.48 104.071 33.6267 104.498 33.76C104.951 33.8933 105.391 33.96 105.818 33.96C107.605 33.96 108.498 32.9467 108.498 30.92V12.48H117.098V30.4C117.098 33.76 116.325 36.3067 114.778 38.04C113.231 39.7733 111.005 40.64 108.098 40.64ZM127.249 40L119.089 12.48H128.529L132.769 29.64L137.009 12.48H146.049L137.449 40H127.249Z" fill="#009F42"/>
</svg>
